<svg width="48" height="48" viewBox="0 0 48 48" fill="none" xmlns="http://www.w3.org/2000/svg">
<rect width="48" height="48" fill="#323238"/>
<path d="M31 12H17C14.239 12 12 14.239 12 17V31C12 33.761 14.239 36 17 36H31C33.762 36 36 33.761 36 31V17C36 14.239 33.762 12 31 12ZM20 31H17V20H20V31ZM18.5 18.732C17.534 18.732 16.75 17.942 16.75 16.968C16.75 15.994 17.534 15.204 18.5 15.204C19.466 15.204 20.25 15.994 20.25 16.968C20.25 17.942 19.467 18.732 18.5 18.732ZM32 31H29V25.396C29 22.028 25 22.283 25 25.396V31H22V20H25V21.765C26.396 19.179 32 18.988 32 24.241V31Z" fill="white"/>
</svg>
